<svg xmlns="http://www.w3.org/2000/svg" xmlns:xlink="http://www.w3.org/1999/xlink" viewBox="0 0 512 512">
	<defs>
		<style>
			.cls-1{fill:url(#Dégradé_sans_nom_4);}.cls-2{fill:url(#Dégradé_sans_nom_4-2);}.cls-3{fill:url(#Dégradé_sans_nom_4-3);}.cls-4{fill:url(#Dégradé_sans_nom_4-4);}
		</style>
		<linearGradient id="Dégradé_sans_nom_4" x1="-603.66" y1="658.29" x2="-602.66" y2="657.29"
										gradientTransform="matrix(134, 0, 0, -134, 81051, 88241.5)" gradientUnits="userSpaceOnUse">
			<stop offset="0" stop-color="#4c9ded"/>
			<stop offset="1" stop-color="#3178b5"/>
		</linearGradient>
		<linearGradient id="Dégradé_sans_nom_4-2" x1="-604.97" y1="661.45" x2="-603.97" y2="660.45"
										gradientTransform="matrix(320.43, 0, 0, -87, 194008.79, 57824.5)" xlink:href="#Dégradé_sans_nom_4"/>
		<linearGradient id="Dégradé_sans_nom_4-3" x1="214.73" y1="571.27" x2="452.27" y2="333.73"
										gradientTransform="matrix(1, 0, 0, 1, 0, 0)" xlink:href="#Dégradé_sans_nom_4"/>
		<linearGradient id="Dégradé_sans_nom_4-4" x1="-73.49" y1="360.5" x2="307.22" y2="-20.2"
										gradientTransform="matrix(1, 0, 0, 1, 0, 0)" xlink:href="#Dégradé_sans_nom_4"/>
	</defs>
	<g id="Calque_1-2">
		<path class="cls-1" d="M325,134v-6.6a12,12,0,0,0-3.5-8.48L206.37,3.52A12,12,0,0,0,197.87,0H191V134Z"/>
		<path class="cls-2" d="M228.3,274a16,16,0,0,0-14.09,8.42L172,361H492.38l-48-79.28A16,16,0,0,0,430.72,274Z"/>
		<path class="cls-3"
					d="M280.77,441.58a11.1,11.1,0,0,0-5.6-1.08h-4.95v9.59h5.47q3.88,0,5.37-1.27a4.54,4.54,0,0,0,1.49-3.66A3.85,3.85,0,0,0,280.77,441.58Zm2,15.62a4.58,4.58,0,0,0-2.36-1.83,12.38,12.38,0,0,0-4.42-.64h-5.74v11h6q4,0,5.59-1.54a5.54,5.54,0,0,0,1.62-4.19A5.41,5.41,0,0,0,282.74,457.2Zm0,0a4.58,4.58,0,0,0-2.36-1.83,12.38,12.38,0,0,0-4.42-.64h-5.74v11h6q4,0,5.59-1.54a5.54,5.54,0,0,0,1.62-4.19A5.41,5.41,0,0,0,282.74,457.2Zm-2-15.62a11.1,11.1,0,0,0-5.6-1.08h-4.95v9.59h5.47q3.88,0,5.37-1.27a4.54,4.54,0,0,0,1.49-3.66A3.85,3.85,0,0,0,280.77,441.58Zm0,0a11.1,11.1,0,0,0-5.6-1.08h-4.95v9.59h5.47q3.88,0,5.37-1.27a4.54,4.54,0,0,0,1.49-3.66A3.85,3.85,0,0,0,280.77,441.58Zm2,15.62a4.58,4.58,0,0,0-2.36-1.83,12.38,12.38,0,0,0-4.42-.64h-5.74v11h6q4,0,5.59-1.54a5.54,5.54,0,0,0,1.62-4.19A5.41,5.41,0,0,0,282.74,457.2Zm0,0a4.58,4.58,0,0,0-2.36-1.83,12.38,12.38,0,0,0-4.42-.64h-5.74v11h6q4,0,5.59-1.54a5.54,5.54,0,0,0,1.62-4.19A5.41,5.41,0,0,0,282.74,457.2Zm-1.68-8.38a4.54,4.54,0,0,0,1.49-3.66,3.85,3.85,0,0,0-1.78-3.58,11.1,11.1,0,0,0-5.6-1.08h-4.95v9.59h5.47Q279.57,450.09,281.06,448.82ZM496,393H171a16,16,0,0,0-16,16v87a16,16,0,0,0,16,16H496a16,16,0,0,0,16-16V409A16,16,0,0,0,496,393ZM211.39,466.38a9.53,9.53,0,0,1-4.33,3.43,17.29,17.29,0,0,1-6.72,1.19,30.34,30.34,0,0,1-3.64-.21,25.62,25.62,0,0,1-3.27-.63,17.58,17.58,0,0,1-2.82-1v-5.37a38.68,38.68,0,0,0,4.76,1.67,19.22,19.22,0,0,0,5.33.75,9.89,9.89,0,0,0,3.66-.58,4.57,4.57,0,0,0,2.18-1.67,4.45,4.45,0,0,0,.72-2.53,4,4,0,0,0-.83-2.6,7.9,7.9,0,0,0-2.51-2,43.57,43.57,0,0,0-4.22-1.92,25,25,0,0,1-3.26-1.55,13.64,13.64,0,0,1-2.76-2.07,8.94,8.94,0,0,1-1.93-2.83,9.48,9.48,0,0,1-.71-3.83,8.8,8.8,0,0,1,1.42-5.06,9.08,9.08,0,0,1,4-3.22,15,15,0,0,1,6-1.12,21.87,21.87,0,0,1,5.16.58,28.48,28.48,0,0,1,4.74,1.61L210.59,442a35.24,35.24,0,0,0-4.16-1.41,15.62,15.62,0,0,0-4.09-.54,7.59,7.59,0,0,0-3.07.55,4.39,4.39,0,0,0-1.82,6.45,6.86,6.86,0,0,0,2.33,1.88c1.06.57,2.42,1.2,4.08,1.9a29.92,29.92,0,0,1,4.89,2.5,9.38,9.38,0,0,1,3.08,3.13,8.78,8.78,0,0,1,1.07,4.55A9.25,9.25,0,0,1,211.39,466.38Zm44,4.14h-5.44V451.16c0-1.07,0-2.21,0-3.44s.08-2.4.13-3.51.11-2,.16-2.67H250l-10.37,29h-5l-10-29h-.21c0,.65.1,1.53.16,2.65s.12,2.32.17,3.62.07,2.51.07,3.67v19.08h-5.19V435.74h8l9.64,27.77h.14l10-27.77h8ZM287.94,466a9.46,9.46,0,0,1-4.31,3.4,17.09,17.09,0,0,1-6.63,1.16H264.51V435.74h10.35q6.74,0,10.16,1.95t3.43,6.76a9,9,0,0,1-.7,3.59,6.71,6.71,0,0,1-2,2.63,7.46,7.46,0,0,1-3.28,1.39v.24a11.12,11.12,0,0,1,3.6,1.26,6.43,6.43,0,0,1,2.5,2.59,9.18,9.18,0,0,1,.92,4.38A9.52,9.52,0,0,1,287.94,466Zm29.87,4.56H294.23v-4.21l9-9.13c1.74-1.78,3.18-3.31,4.3-4.61a17,17,0,0,0,2.53-3.67,8.73,8.73,0,0,0,.83-3.79,4.84,4.84,0,0,0-1.45-3.79,5.52,5.52,0,0,0-3.83-1.3,9.86,9.86,0,0,0-4.18.89,19.55,19.55,0,0,0-4,2.54l-3.07-3.71a25,25,0,0,1,3.08-2.24,15.38,15.38,0,0,1,3.7-1.64,16,16,0,0,1,4.69-.62,12.79,12.79,0,0,1,5.71,1.18,8.77,8.77,0,0,1,3.7,3.28,9.13,9.13,0,0,1,1.29,4.87,12.05,12.05,0,0,1-1.11,5.19,20.05,20.05,0,0,1-3.19,4.7c-1.38,1.56-3,3.24-4.93,5.05l-6,5.85v.26h16.47Zm54.93,6.22a24,24,0,1,1,24-24A24,24,0,0,1,372.74,476.74Zm72,0a24,24,0,1,1,24-24A24,24,0,0,1,444.74,476.74ZM280.38,455.37a12.38,12.38,0,0,0-4.42-.64h-5.74v11h6q4,0,5.59-1.54a5.54,5.54,0,0,0,1.62-4.19,5.41,5.41,0,0,0-.71-2.81A4.58,4.58,0,0,0,280.38,455.37Zm.68-6.55a4.54,4.54,0,0,0,1.49-3.66,3.85,3.85,0,0,0-1.78-3.58,11.1,11.1,0,0,0-5.6-1.08h-4.95v9.59h5.47Q279.57,450.09,281.06,448.82Zm-.29-7.24a11.1,11.1,0,0,0-5.6-1.08h-4.95v9.59h5.47q3.88,0,5.37-1.27a4.54,4.54,0,0,0,1.49-3.66A3.85,3.85,0,0,0,280.77,441.58Zm2,15.62a4.58,4.58,0,0,0-2.36-1.83,12.38,12.38,0,0,0-4.42-.64h-5.74v11h6q4,0,5.59-1.54a5.54,5.54,0,0,0,1.62-4.19A5.41,5.41,0,0,0,282.74,457.2Zm0,0a4.58,4.58,0,0,0-2.36-1.83,12.38,12.38,0,0,0-4.42-.64h-5.74v11h6q4,0,5.59-1.54a5.54,5.54,0,0,0,1.62-4.19A5.41,5.41,0,0,0,282.74,457.2Zm-2-15.62a11.1,11.1,0,0,0-5.6-1.08h-4.95v9.59h5.47q3.88,0,5.37-1.27a4.54,4.54,0,0,0,1.49-3.66A3.85,3.85,0,0,0,280.77,441.58Zm0,0a11.1,11.1,0,0,0-5.6-1.08h-4.95v9.59h5.47q3.88,0,5.37-1.27a4.54,4.54,0,0,0,1.49-3.66A3.85,3.85,0,0,0,280.77,441.58Zm2,15.62a4.58,4.58,0,0,0-2.36-1.83,12.38,12.38,0,0,0-4.42-.64h-5.74v11h6q4,0,5.59-1.54a5.54,5.54,0,0,0,1.62-4.19A5.41,5.41,0,0,0,282.74,457.2Zm0,0a4.58,4.58,0,0,0-2.36-1.83,12.38,12.38,0,0,0-4.42-.64h-5.74v11h6q4,0,5.59-1.54a5.54,5.54,0,0,0,1.62-4.19A5.41,5.41,0,0,0,282.74,457.2Zm-2-15.62a11.1,11.1,0,0,0-5.6-1.08h-4.95v9.59h5.47q3.88,0,5.37-1.27a4.54,4.54,0,0,0,1.49-3.66A3.85,3.85,0,0,0,280.77,441.58Z"/>
		<path class="cls-4"
					d="M0,12A12,12,0,0,1,12,0H159V154a12,12,0,0,0,12,12H325v76H228.56a48,48,0,0,0-42.28,25.26L129.2,373.41A52,52,0,0,0,123,398v36H12A12,12,0,0,1,0,422Zm52.69,8H20V30.33H52.51c11.45,0,20.66,5.83,20.66,17.47C73.17,55.51,69,60.54,61.33,62v.2c9.58,1,15,9,15,17.37,0,16.33-10.63,20.52-23.77,21H20V113H56c27.73,0,42.51-16.16,42.51-46.49C98.46,39.89,84.86,20,52.69,20ZM19,40.73V88.27H43.8V77.93H29.33V40.73Z"/>
	</g>
</svg>
